<?xml version="1.0" encoding="utf-8" standalone="no"?>
<!DOCTYPE svg PUBLIC "-//W3C//DTD SVG 1.1//EN"
  "http://www.w3.org/Graphics/SVG/1.1/DTD/svg11.dtd">
<svg xmlns:xlink="http://www.w3.org/1999/xlink" width="576pt" height="432pt" viewBox="0 0 576 432" xmlns="http://www.w3.org/2000/svg" version="1.1">
 <metadata>
  <rdf:RDF xmlns:dc="http://purl.org/dc/elements/1.1/" xmlns:cc="http://creativecommons.org/ns#" xmlns:rdf="http://www.w3.org/1999/02/22-rdf-syntax-ns#">
   <cc:Work>
    <dc:type rdf:resource="http://purl.org/dc/dcmitype/StillImage"/>
    <dc:date>2025-10-16T14:02:48.507305</dc:date>
    <dc:format>image/svg+xml</dc:format>
    <dc:creator>
     <cc:Agent>
      <dc:title>Matplotlib v3.10.6, https://matplotlib.org/</dc:title>
     </cc:Agent>
    </dc:creator>
   </cc:Work>
  </rdf:RDF>
 </metadata>
 <defs>
  <style type="text/css">*{stroke-linejoin: round; stroke-linecap: butt}</style>
 </defs>
 <g id="figure_1">
  <g id="patch_1">
   <path d="M 0 432
L 576 432
L 576 0
L 0 0
z
" style="fill: #ffffff"/>
  </g>
  <g id="axes_1">
   <g id="patch_2">
    <path d="M 136.42359 375.352
L 439.57641 375.352
L 439.57641 10.8
L 136.42359 10.8
z
" style="fill: #e5e5e5"/>
   </g>
   <g id="matplotlib.axis_1">
    <g id="xtick_1">
     <g id="line2d_1">
      <path d="M 183.010786 375.352
L 183.010786 10.8
" clip-path="url(#pe68b257409)" style="fill: none; stroke: #ffffff; stroke-width: 0.8; stroke-linecap: square"/>
     </g>
     <g id="line2d_2">
      <defs>
       <path id="me68cf24bb2" d="M 0 0
L 0 3.5
" style="stroke: #555555; stroke-width: 0.8"/>
      </defs>
      <g>
       <use xlink:href="#me68cf24bb2" x="183.010786" y="375.352" style="fill: #555555; stroke: #555555; stroke-width: 0.8"/>
      </g>
     </g>
     <g id="text_1">
      <!-- −2 -->
      <g style="fill: #555555" transform="translate(169.742817 396.029187) scale(0.18 -0.18)">
       <defs>
        <path id="DejaVuSans-2212" d="M 678 2272
L 4684 2272
L 4684 1741
L 678 1741
L 678 2272
z
" transform="scale(0.015625)"/>
        <path id="DejaVuSans-32" d="M 1228 531
L 3431 531
L 3431 0
L 469 0
L 469 531
Q 828 903 1448 1529
Q 2069 2156 2228 2338
Q 2531 2678 2651 2914
Q 2772 3150 2772 3378
Q 2772 3750 2511 3984
Q 2250 4219 1831 4219
Q 1534 4219 1204 4116
Q 875 4013 500 3803
L 500 4441
Q 881 4594 1212 4672
Q 1544 4750 1819 4750
Q 2544 4750 2975 4387
Q 3406 4025 3406 3419
Q 3406 3131 3298 2873
Q 3191 2616 2906 2266
Q 2828 2175 2409 1742
Q 1991 1309 1228 531
z
" transform="scale(0.015625)"/>
       </defs>
       <use xlink:href="#DejaVuSans-2212"/>
       <use xlink:href="#DejaVuSans-32" transform="translate(83.789062 0)"/>
      </g>
     </g>
    </g>
    <g id="xtick_2">
     <g id="line2d_3">
      <path d="M 285.03193 375.352
L 285.03193 10.8
" clip-path="url(#pe68b257409)" style="fill: none; stroke: #ffffff; stroke-width: 0.8; stroke-linecap: square"/>
     </g>
     <g id="line2d_4">
      <g>
       <use xlink:href="#me68cf24bb2" x="285.03193" y="375.352" style="fill: #555555; stroke: #555555; stroke-width: 0.8"/>
      </g>
     </g>
     <g id="text_2">
      <!-- 0 -->
      <g style="fill: #555555" transform="translate(279.30568 396.029187) scale(0.18 -0.18)">
       <defs>
        <path id="DejaVuSans-30" d="M 2034 4250
Q 1547 4250 1301 3770
Q 1056 3291 1056 2328
Q 1056 1369 1301 889
Q 1547 409 2034 409
Q 2525 409 2770 889
Q 3016 1369 3016 2328
Q 3016 3291 2770 3770
Q 2525 4250 2034 4250
z
M 2034 4750
Q 2819 4750 3233 4129
Q 3647 3509 3647 2328
Q 3647 1150 3233 529
Q 2819 -91 2034 -91
Q 1250 -91 836 529
Q 422 1150 422 2328
Q 422 3509 836 4129
Q 1250 4750 2034 4750
z
" transform="scale(0.015625)"/>
       </defs>
       <use xlink:href="#DejaVuSans-30"/>
      </g>
     </g>
    </g>
    <g id="xtick_3">
     <g id="line2d_5">
      <path d="M 387.053074 375.352
L 387.053074 10.8
" clip-path="url(#pe68b257409)" style="fill: none; stroke: #ffffff; stroke-width: 0.8; stroke-linecap: square"/>
     </g>
     <g id="line2d_6">
      <g>
       <use xlink:href="#me68cf24bb2" x="387.053074" y="375.352" style="fill: #555555; stroke: #555555; stroke-width: 0.8"/>
      </g>
     </g>
     <g id="text_3">
      <!-- 2 -->
      <g style="fill: #555555" transform="translate(381.326824 396.029187) scale(0.18 -0.18)">
       <use xlink:href="#DejaVuSans-32"/>
      </g>
     </g>
    </g>
    <g id="text_4">
     <!-- LV1 (24.2%) -->
     <g style="fill: #555555" transform="translate(233.618906 417.449812) scale(0.18 -0.18)">
      <defs>
       <path id="DejaVuSans-4c" d="M 628 4666
L 1259 4666
L 1259 531
L 3531 531
L 3531 0
L 628 0
L 628 4666
z
" transform="scale(0.015625)"/>
       <path id="DejaVuSans-56" d="M 1831 0
L 50 4666
L 709 4666
L 2188 738
L 3669 4666
L 4325 4666
L 2547 0
L 1831 0
z
" transform="scale(0.015625)"/>
       <path id="DejaVuSans-31" d="M 794 531
L 1825 531
L 1825 4091
L 703 3866
L 703 4441
L 1819 4666
L 2450 4666
L 2450 531
L 3481 531
L 3481 0
L 794 0
L 794 531
z
" transform="scale(0.015625)"/>
       <path id="DejaVuSans-20" transform="scale(0.015625)"/>
       <path id="DejaVuSans-28" d="M 1984 4856
Q 1566 4138 1362 3434
Q 1159 2731 1159 2009
Q 1159 1288 1364 580
Q 1569 -128 1984 -844
L 1484 -844
Q 1016 -109 783 600
Q 550 1309 550 2009
Q 550 2706 781 3412
Q 1013 4119 1484 4856
L 1984 4856
z
" transform="scale(0.015625)"/>
       <path id="DejaVuSans-34" d="M 2419 4116
L 825 1625
L 2419 1625
L 2419 4116
z
M 2253 4666
L 3047 4666
L 3047 1625
L 3713 1625
L 3713 1100
L 3047 1100
L 3047 0
L 2419 0
L 2419 1100
L 313 1100
L 313 1709
L 2253 4666
z
" transform="scale(0.015625)"/>
       <path id="DejaVuSans-2e" d="M 684 794
L 1344 794
L 1344 0
L 684 0
L 684 794
z
" transform="scale(0.015625)"/>
       <path id="DejaVuSans-25" d="M 4653 2053
Q 4381 2053 4226 1822
Q 4072 1591 4072 1178
Q 4072 772 4226 539
Q 4381 306 4653 306
Q 4919 306 5073 539
Q 5228 772 5228 1178
Q 5228 1588 5073 1820
Q 4919 2053 4653 2053
z
M 4653 2450
Q 5147 2450 5437 2106
Q 5728 1763 5728 1178
Q 5728 594 5436 251
Q 5144 -91 4653 -91
Q 4153 -91 3862 251
Q 3572 594 3572 1178
Q 3572 1766 3864 2108
Q 4156 2450 4653 2450
z
M 1428 4353
Q 1159 4353 1004 4120
Q 850 3888 850 3481
Q 850 3069 1003 2837
Q 1156 2606 1428 2606
Q 1700 2606 1854 2837
Q 2009 3069 2009 3481
Q 2009 3884 1853 4118
Q 1697 4353 1428 4353
z
M 4250 4750
L 4750 4750
L 1831 -91
L 1331 -91
L 4250 4750
z
M 1428 4750
Q 1922 4750 2215 4408
Q 2509 4066 2509 3481
Q 2509 2891 2217 2550
Q 1925 2209 1428 2209
Q 931 2209 642 2551
Q 353 2894 353 3481
Q 353 4063 643 4406
Q 934 4750 1428 4750
z
" transform="scale(0.015625)"/>
       <path id="DejaVuSans-29" d="M 513 4856
L 1013 4856
Q 1481 4119 1714 3412
Q 1947 2706 1947 2009
Q 1947 1309 1714 600
Q 1481 -109 1013 -844
L 513 -844
Q 928 -128 1133 580
Q 1338 1288 1338 2009
Q 1338 2731 1133 3434
Q 928 4138 513 4856
z
" transform="scale(0.015625)"/>
      </defs>
      <use xlink:href="#DejaVuSans-4c"/>
      <use xlink:href="#DejaVuSans-56" transform="translate(44.712891 0)"/>
      <use xlink:href="#DejaVuSans-31" transform="translate(113.121094 0)"/>
      <use xlink:href="#DejaVuSans-20" transform="translate(176.744141 0)"/>
      <use xlink:href="#DejaVuSans-28" transform="translate(208.53125 0)"/>
      <use xlink:href="#DejaVuSans-32" transform="translate(247.544922 0)"/>
      <use xlink:href="#DejaVuSans-34" transform="translate(311.167969 0)"/>
      <use xlink:href="#DejaVuSans-2e" transform="translate(374.791016 0)"/>
      <use xlink:href="#DejaVuSans-32" transform="translate(406.578125 0)"/>
      <use xlink:href="#DejaVuSans-25" transform="translate(470.201172 0)"/>
      <use xlink:href="#DejaVuSans-29" transform="translate(565.220703 0)"/>
     </g>
    </g>
   </g>
   <g id="matplotlib.axis_2">
    <g id="ytick_1">
     <g id="line2d_7">
      <path d="M 136.42359 338.523186
L 439.57641 338.523186
" clip-path="url(#pe68b257409)" style="fill: none; stroke: #ffffff; stroke-width: 0.8; stroke-linecap: square"/>
     </g>
     <g id="line2d_8">
      <defs>
       <path id="m03f62af61e" d="M 0 0
L -3.5 0
" style="stroke: #555555; stroke-width: 0.8"/>
      </defs>
      <g>
       <use xlink:href="#m03f62af61e" x="136.42359" y="338.523186" style="fill: #555555; stroke: #555555; stroke-width: 0.8"/>
      </g>
     </g>
     <g id="text_5">
      <!-- −3 -->
      <g style="fill: #555555" transform="translate(102.887653 345.36178) scale(0.18 -0.18)">
       <defs>
        <path id="DejaVuSans-33" d="M 2597 2516
Q 3050 2419 3304 2112
Q 3559 1806 3559 1356
Q 3559 666 3084 287
Q 2609 -91 1734 -91
Q 1441 -91 1130 -33
Q 819 25 488 141
L 488 750
Q 750 597 1062 519
Q 1375 441 1716 441
Q 2309 441 2620 675
Q 2931 909 2931 1356
Q 2931 1769 2642 2001
Q 2353 2234 1838 2234
L 1294 2234
L 1294 2753
L 1863 2753
Q 2328 2753 2575 2939
Q 2822 3125 2822 3475
Q 2822 3834 2567 4026
Q 2313 4219 1838 4219
Q 1578 4219 1281 4162
Q 984 4106 628 3988
L 628 4550
Q 988 4650 1302 4700
Q 1616 4750 1894 4750
Q 2613 4750 3031 4423
Q 3450 4097 3450 3541
Q 3450 3153 3228 2886
Q 3006 2619 2597 2516
z
" transform="scale(0.015625)"/>
       </defs>
       <use xlink:href="#DejaVuSans-2212"/>
       <use xlink:href="#DejaVuSans-33" transform="translate(83.789062 0)"/>
      </g>
     </g>
    </g>
    <g id="ytick_2">
     <g id="line2d_9">
      <path d="M 136.42359 287.512614
L 439.57641 287.512614
" clip-path="url(#pe68b257409)" style="fill: none; stroke: #ffffff; stroke-width: 0.8; stroke-linecap: square"/>
     </g>
     <g id="line2d_10">
      <g>
       <use xlink:href="#m03f62af61e" x="136.42359" y="287.512614" style="fill: #555555; stroke: #555555; stroke-width: 0.8"/>
      </g>
     </g>
     <g id="text_6">
      <!-- −2 -->
      <g style="fill: #555555" transform="translate(102.887653 294.351208) scale(0.18 -0.18)">
       <use xlink:href="#DejaVuSans-2212"/>
       <use xlink:href="#DejaVuSans-32" transform="translate(83.789062 0)"/>
      </g>
     </g>
    </g>
    <g id="ytick_3">
     <g id="line2d_11">
      <path d="M 136.42359 236.502042
L 439.57641 236.502042
" clip-path="url(#pe68b257409)" style="fill: none; stroke: #ffffff; stroke-width: 0.8; stroke-linecap: square"/>
     </g>
     <g id="line2d_12">
      <g>
       <use xlink:href="#m03f62af61e" x="136.42359" y="236.502042" style="fill: #555555; stroke: #555555; stroke-width: 0.8"/>
      </g>
     </g>
     <g id="text_7">
      <!-- −1 -->
      <g style="fill: #555555" transform="translate(102.887653 243.340636) scale(0.18 -0.18)">
       <use xlink:href="#DejaVuSans-2212"/>
       <use xlink:href="#DejaVuSans-31" transform="translate(83.789062 0)"/>
      </g>
     </g>
    </g>
    <g id="ytick_4">
     <g id="line2d_13">
      <path d="M 136.42359 185.49147
L 439.57641 185.49147
" clip-path="url(#pe68b257409)" style="fill: none; stroke: #ffffff; stroke-width: 0.8; stroke-linecap: square"/>
     </g>
     <g id="line2d_14">
      <g>
       <use xlink:href="#m03f62af61e" x="136.42359" y="185.49147" style="fill: #555555; stroke: #555555; stroke-width: 0.8"/>
      </g>
     </g>
     <g id="text_8">
      <!-- 0 -->
      <g style="fill: #555555" transform="translate(117.97109 192.330064) scale(0.18 -0.18)">
       <use xlink:href="#DejaVuSans-30"/>
      </g>
     </g>
    </g>
    <g id="ytick_5">
     <g id="line2d_15">
      <path d="M 136.42359 134.480898
L 439.57641 134.480898
" clip-path="url(#pe68b257409)" style="fill: none; stroke: #ffffff; stroke-width: 0.8; stroke-linecap: square"/>
     </g>
     <g id="line2d_16">
      <g>
       <use xlink:href="#m03f62af61e" x="136.42359" y="134.480898" style="fill: #555555; stroke: #555555; stroke-width: 0.8"/>
      </g>
     </g>
     <g id="text_9">
      <!-- 1 -->
      <g style="fill: #555555" transform="translate(117.97109 141.319491) scale(0.18 -0.18)">
       <use xlink:href="#DejaVuSans-31"/>
      </g>
     </g>
    </g>
    <g id="ytick_6">
     <g id="line2d_17">
      <path d="M 136.42359 83.470326
L 439.57641 83.470326
" clip-path="url(#pe68b257409)" style="fill: none; stroke: #ffffff; stroke-width: 0.8; stroke-linecap: square"/>
     </g>
     <g id="line2d_18">
      <g>
       <use xlink:href="#m03f62af61e" x="136.42359" y="83.470326" style="fill: #555555; stroke: #555555; stroke-width: 0.8"/>
      </g>
     </g>
     <g id="text_10">
      <!-- 2 -->
      <g style="fill: #555555" transform="translate(117.97109 90.308919) scale(0.18 -0.18)">
       <use xlink:href="#DejaVuSans-32"/>
      </g>
     </g>
    </g>
    <g id="ytick_7">
     <g id="line2d_19">
      <path d="M 136.42359 32.459753
L 439.57641 32.459753
" clip-path="url(#pe68b257409)" style="fill: none; stroke: #ffffff; stroke-width: 0.8; stroke-linecap: square"/>
     </g>
     <g id="line2d_20">
      <g>
       <use xlink:href="#m03f62af61e" x="136.42359" y="32.459753" style="fill: #555555; stroke: #555555; stroke-width: 0.8"/>
      </g>
     </g>
     <g id="text_11">
      <!-- 3 -->
      <g style="fill: #555555" transform="translate(117.97109 39.298347) scale(0.18 -0.18)">
       <use xlink:href="#DejaVuSans-33"/>
      </g>
     </g>
    </g>
    <g id="text_12">
     <!-- LV2 (33.0%) -->
     <g style="fill: #555555" transform="translate(95.144215 247.457094) rotate(-90) scale(0.18 -0.18)">
      <use xlink:href="#DejaVuSans-4c"/>
      <use xlink:href="#DejaVuSans-56" transform="translate(44.712891 0)"/>
      <use xlink:href="#DejaVuSans-32" transform="translate(113.121094 0)"/>
      <use xlink:href="#DejaVuSans-20" transform="translate(176.744141 0)"/>
      <use xlink:href="#DejaVuSans-28" transform="translate(208.53125 0)"/>
      <use xlink:href="#DejaVuSans-33" transform="translate(247.544922 0)"/>
      <use xlink:href="#DejaVuSans-33" transform="translate(311.167969 0)"/>
      <use xlink:href="#DejaVuSans-2e" transform="translate(374.791016 0)"/>
      <use xlink:href="#DejaVuSans-30" transform="translate(406.578125 0)"/>
      <use xlink:href="#DejaVuSans-25" transform="translate(470.201172 0)"/>
      <use xlink:href="#DejaVuSans-29" transform="translate(565.220703 0)"/>
     </g>
    </g>
   </g>
   <g id="PathCollection_1">
    <defs>
     <path id="C0_0_42a34e94d9" d="M 0 7.905694
C 2.096615 7.905694 4.10764 7.0727 5.59017 5.59017
C 7.0727 4.10764 7.905694 2.096615 7.905694 -0
C 7.905694 -2.096615 7.0727 -4.10764 5.59017 -5.59017
C 4.10764 -7.0727 2.096615 -7.905694 0 -7.905694
C -2.096615 -7.905694 -4.10764 -7.0727 -5.59017 -5.59017
C -7.0727 -4.10764 -7.905694 -2.096615 -7.905694 0
C -7.905694 2.096615 -7.0727 4.10764 -5.59017 5.59017
C -4.10764 7.0727 -2.096615 7.905694 0 7.905694
z
"/>
    </defs>
    <g clip-path="url(#pe68b257409)">
     <use xlink:href="#C0_0_42a34e94d9" x="343.827877" y="231.340504" style="fill: #1f77b4; fill-opacity: 0.5"/>
    </g>
    <g clip-path="url(#pe68b257409)">
     <use xlink:href="#C0_0_42a34e94d9" x="279.044042" y="69.452654" style="fill: #1f77b4; fill-opacity: 0.5"/>
    </g>
    <g clip-path="url(#pe68b257409)">
     <use xlink:href="#C0_0_42a34e94d9" x="230.787285" y="246.742949" style="fill: #1f77b4; fill-opacity: 0.5"/>
    </g>
    <g clip-path="url(#pe68b257409)">
     <use xlink:href="#C0_0_42a34e94d9" x="313.0714" y="241.419342" style="fill: #1f77b4; fill-opacity: 0.5"/>
    </g>
    <g clip-path="url(#pe68b257409)">
     <use xlink:href="#C0_0_42a34e94d9" x="221.544457" y="163.867158" style="fill: #1f77b4; fill-opacity: 0.5"/>
    </g>
    <g clip-path="url(#pe68b257409)">
     <use xlink:href="#C0_0_42a34e94d9" x="231.307755" y="155.919519" style="fill: #1f77b4; fill-opacity: 0.5"/>
    </g>
    <g clip-path="url(#pe68b257409)">
     <use xlink:href="#C0_0_42a34e94d9" x="205.398953" y="316.879607" style="fill: #1f77b4; fill-opacity: 0.5"/>
    </g>
    <g clip-path="url(#pe68b257409)">
     <use xlink:href="#C0_0_42a34e94d9" x="222.754501" y="150.630733" style="fill: #1f77b4; fill-opacity: 0.5"/>
    </g>
    <g clip-path="url(#pe68b257409)">
     <use xlink:href="#C0_0_42a34e94d9" x="236.465703" y="200.380811" style="fill: #1f77b4; fill-opacity: 0.5"/>
    </g>
    <g clip-path="url(#pe68b257409)">
     <use xlink:href="#C0_0_42a34e94d9" x="215.359191" y="153.239275" style="fill: #1f77b4; fill-opacity: 0.5"/>
    </g>
    <g clip-path="url(#pe68b257409)">
     <use xlink:href="#C0_0_42a34e94d9" x="313.0714" y="241.419342" style="fill: #1f77b4; fill-opacity: 0.5"/>
    </g>
    <g clip-path="url(#pe68b257409)">
     <use xlink:href="#C0_0_42a34e94d9" x="205.398953" y="316.879607" style="fill: #1f77b4; fill-opacity: 0.5"/>
    </g>
    <g clip-path="url(#pe68b257409)">
     <use xlink:href="#C0_0_42a34e94d9" x="354.583042" y="210.981008" style="fill: #1f77b4; fill-opacity: 0.5"/>
    </g>
    <g clip-path="url(#pe68b257409)">
     <use xlink:href="#C0_0_42a34e94d9" x="224.757627" y="27.370545" style="fill: #1f77b4; fill-opacity: 0.5"/>
    </g>
    <g clip-path="url(#pe68b257409)">
     <use xlink:href="#C0_0_42a34e94d9" x="213.341903" y="252.752428" style="fill: #1f77b4; fill-opacity: 0.5"/>
    </g>
    <g clip-path="url(#pe68b257409)">
     <use xlink:href="#C0_0_42a34e94d9" x="205.398953" y="316.879607" style="fill: #1f77b4; fill-opacity: 0.5"/>
    </g>
    <g clip-path="url(#pe68b257409)">
     <use xlink:href="#C0_0_42a34e94d9" x="221.728185" y="276.645376" style="fill: #1f77b4; fill-opacity: 0.5"/>
    </g>
    <g clip-path="url(#pe68b257409)">
     <use xlink:href="#C0_0_42a34e94d9" x="222.632063" y="162.570091" style="fill: #1f77b4; fill-opacity: 0.5"/>
    </g>
    <g clip-path="url(#pe68b257409)">
     <use xlink:href="#C0_0_42a34e94d9" x="215.359191" y="153.239275" style="fill: #1f77b4; fill-opacity: 0.5"/>
    </g>
    <g clip-path="url(#pe68b257409)">
     <use xlink:href="#C0_0_42a34e94d9" x="227.439282" y="159.193181" style="fill: #1f77b4; fill-opacity: 0.5"/>
    </g>
   </g>
   <g id="patch_3">
    <path d="M 249.747911 45.998847
C 224.564138 45.260631 199.925405 61.030925 181.258105 89.836506
C 162.590804 118.642086 151.41904 158.131105 150.203264 199.606564
C 148.987487 241.082022 157.826961 281.157634 174.774893 311.007209
C 191.722826 340.856784 215.395493 358.043239 240.579265 358.781455
C 265.763038 359.51967 290.401772 343.749376 309.069072 314.943795
C 327.736372 286.138215 338.908136 246.649196 340.123912 205.173737
C 341.339689 163.698279 332.500215 123.622668 315.552283 93.773092
C 298.604351 63.923517 274.931683 46.737062 249.747911 45.998847
z
" clip-path="url(#pe68b257409)" style="fill: #1f77b4; opacity: 0.2; stroke: #1f77b4; stroke-width: 2; stroke-linejoin: miter"/>
   </g>
   <g id="PathCollection_2">
    <defs>
     <path id="C1_0_17eac27500" d="M 0 7.905694
C 2.096615 7.905694 4.10764 7.0727 5.59017 5.59017
C 7.0727 4.10764 7.905694 2.096615 7.905694 -0
C 7.905694 -2.096615 7.0727 -4.10764 5.59017 -5.59017
C 4.10764 -7.0727 2.096615 -7.905694 0 -7.905694
C -2.096615 -7.905694 -4.10764 -7.0727 -5.59017 -5.59017
C -7.0727 -4.10764 -7.905694 -2.096615 -7.905694 0
C -7.905694 2.096615 -7.0727 4.10764 -5.59017 5.59017
C -4.10764 7.0727 -2.096615 7.905694 0 7.905694
z
"/>
    </defs>
    <g clip-path="url(#pe68b257409)">
     <use xlink:href="#C1_0_17eac27500" x="249.272562" y="188.394591" style="fill: #ff7f0e; fill-opacity: 0.5"/>
    </g>
    <g clip-path="url(#pe68b257409)">
     <use xlink:href="#C1_0_17eac27500" x="354.156887" y="129.818683" style="fill: #ff7f0e; fill-opacity: 0.5"/>
    </g>
    <g clip-path="url(#pe68b257409)">
     <use xlink:href="#C1_0_17eac27500" x="354.583042" y="210.981008" style="fill: #ff7f0e; fill-opacity: 0.5"/>
    </g>
    <g clip-path="url(#pe68b257409)">
     <use xlink:href="#C1_0_17eac27500" x="224.757627" y="27.370545" style="fill: #ff7f0e; fill-opacity: 0.5"/>
    </g>
    <g clip-path="url(#pe68b257409)">
     <use xlink:href="#C1_0_17eac27500" x="343.827877" y="231.340504" style="fill: #ff7f0e; fill-opacity: 0.5"/>
    </g>
    <g clip-path="url(#pe68b257409)">
     <use xlink:href="#C1_0_17eac27500" x="354.583042" y="210.981008" style="fill: #ff7f0e; fill-opacity: 0.5"/>
    </g>
    <g clip-path="url(#pe68b257409)">
     <use xlink:href="#C1_0_17eac27500" x="335.757905" y="217.095849" style="fill: #ff7f0e; fill-opacity: 0.5"/>
    </g>
    <g clip-path="url(#pe68b257409)">
     <use xlink:href="#C1_0_17eac27500" x="362.704129" y="165.947633" style="fill: #ff7f0e; fill-opacity: 0.5"/>
    </g>
    <g clip-path="url(#pe68b257409)">
     <use xlink:href="#C1_0_17eac27500" x="329.544047" y="142.103227" style="fill: #ff7f0e; fill-opacity: 0.5"/>
    </g>
    <g clip-path="url(#pe68b257409)">
     <use xlink:href="#C1_0_17eac27500" x="354.156887" y="129.818683" style="fill: #ff7f0e; fill-opacity: 0.5"/>
    </g>
    <g clip-path="url(#pe68b257409)">
     <use xlink:href="#C1_0_17eac27500" x="226.151543" y="33.707882" style="fill: #ff7f0e; fill-opacity: 0.5"/>
    </g>
    <g clip-path="url(#pe68b257409)">
     <use xlink:href="#C1_0_17eac27500" x="291.249476" y="62.499184" style="fill: #ff7f0e; fill-opacity: 0.5"/>
    </g>
    <g clip-path="url(#pe68b257409)">
     <use xlink:href="#C1_0_17eac27500" x="240.294345" y="229.917038" style="fill: #ff7f0e; fill-opacity: 0.5"/>
    </g>
    <g clip-path="url(#pe68b257409)">
     <use xlink:href="#C1_0_17eac27500" x="335.757905" y="217.095849" style="fill: #ff7f0e; fill-opacity: 0.5"/>
    </g>
    <g clip-path="url(#pe68b257409)">
     <use xlink:href="#C1_0_17eac27500" x="373.23031" y="122.563796" style="fill: #ff7f0e; fill-opacity: 0.5"/>
    </g>
    <g clip-path="url(#pe68b257409)">
     <use xlink:href="#C1_0_17eac27500" x="313.0714" y="241.419342" style="fill: #ff7f0e; fill-opacity: 0.5"/>
    </g>
    <g clip-path="url(#pe68b257409)">
     <use xlink:href="#C1_0_17eac27500" x="383.036237" y="222.891308" style="fill: #ff7f0e; fill-opacity: 0.5"/>
    </g>
    <g clip-path="url(#pe68b257409)">
     <use xlink:href="#C1_0_17eac27500" x="354.583042" y="210.981008" style="fill: #ff7f0e; fill-opacity: 0.5"/>
    </g>
    <g clip-path="url(#pe68b257409)">
     <use xlink:href="#C1_0_17eac27500" x="354.583042" y="210.981008" style="fill: #ff7f0e; fill-opacity: 0.5"/>
    </g>
    <g clip-path="url(#pe68b257409)">
     <use xlink:href="#C1_0_17eac27500" x="362.704129" y="165.947633" style="fill: #ff7f0e; fill-opacity: 0.5"/>
    </g>
   </g>
   <g id="patch_4">
    <path d="M 253.603945 42.308072
C 234.670347 52.997378 224.021903 76.556471 224.003808 107.796734
C 223.985712 139.036997 234.599444 175.407802 253.507451 208.898901
C 272.415458 242.389999 298.073985 270.266992 324.832041 286.390294
C 351.590096 302.513596 377.263002 305.566812 396.196599 294.877507
C 415.130197 284.188201 425.778641 260.629108 425.796736 229.388844
C 425.814831 198.148581 415.2011 161.777776 396.293093 128.286678
C 377.385086 94.795579 351.726558 66.918587 324.968503 50.795284
C 298.210448 34.671982 272.537542 31.618766 253.603945 42.308072
z
" clip-path="url(#pe68b257409)" style="fill: #ff7f0e; opacity: 0.2; stroke: #ff7f0e; stroke-width: 2; stroke-linejoin: miter"/>
   </g>
   <g id="patch_5">
    <path d="M 136.42359 375.352
L 136.42359 10.8
" style="fill: none; stroke: #ffffff; stroke-linejoin: miter; stroke-linecap: square"/>
   </g>
   <g id="patch_6">
    <path d="M 439.57641 375.352
L 439.57641 10.8
" style="fill: none; stroke: #ffffff; stroke-linejoin: miter; stroke-linecap: square"/>
   </g>
   <g id="patch_7">
    <path d="M 136.42359 375.352
L 439.57641 375.352
" style="fill: none; stroke: #ffffff; stroke-linejoin: miter; stroke-linecap: square"/>
   </g>
   <g id="patch_8">
    <path d="M 136.42359 10.8
L 439.57641 10.8
" style="fill: none; stroke: #ffffff; stroke-linejoin: miter; stroke-linecap: square"/>
   </g>
   <g id="legend_1">
    <g id="patch_9">
     <path d="M 343.976722 366.352
L 426.97641 366.352
Q 430.57641 366.352 430.57641 362.752
L 430.57641 311.71075
Q 430.57641 308.11075 426.97641 308.11075
L 343.976722 308.11075
Q 340.376722 308.11075 340.376722 311.71075
L 340.376722 362.752
Q 340.376722 366.352 343.976722 366.352
z
" style="fill: #e5e5e5; opacity: 0.8; stroke: #cccccc; stroke-width: 0.5; stroke-linejoin: miter"/>
    </g>
    <g id="PathCollection_3">
     <path d="M 365.576722 332.168632
C 367.673337 332.168632 369.684362 331.335638 371.166892 329.853107
C 372.649423 328.370577 373.482416 326.359552 373.482416 324.262938
C 373.482416 322.166323 372.649423 320.155298 371.166892 318.672768
C 369.684362 317.190237 367.673337 316.357243 365.576722 316.357243
C 363.480108 316.357243 361.469083 317.190237 359.986552 318.672768
C 358.504022 320.155298 357.671028 322.166323 357.671028 324.262938
C 357.671028 326.359552 358.504022 328.370577 359.986552 329.853107
C 361.469083 331.335638 363.480108 332.168632 365.576722 332.168632
z
" style="fill: #1f77b4; fill-opacity: 0.5"/>
    </g>
    <g id="text_13">
     <!-- G1 -->
     <g transform="translate(397.976722 328.987937) scale(0.18 -0.18)">
      <defs>
       <path id="DejaVuSans-Oblique-47" d="M 3494 697
L 3738 1919
L 2700 1919
L 2797 2438
L 4453 2438
L 4050 384
Q 3634 156 3143 32
Q 2653 -91 2156 -91
Q 1278 -91 783 396
Q 288 884 288 1753
Q 288 2475 589 3126
Q 891 3778 1422 4213
Q 1756 4484 2153 4617
Q 2550 4750 3034 4750
Q 3472 4750 3873 4639
Q 4275 4528 4641 4306
L 4513 3634
Q 4231 3928 3853 4083
Q 3475 4238 3047 4238
Q 2550 4238 2172 4048
Q 1794 3859 1497 3463
Q 1244 3125 1098 2667
Q 953 2209 953 1734
Q 953 1081 1287 751
Q 1622 422 2284 422
Q 2616 422 2925 492
Q 3234 563 3494 697
z
" transform="scale(0.015625)"/>
       <path id="DejaVuSans-Oblique-31" d="M 416 531
L 1447 531
L 2144 4122
L 978 3897
L 1088 4441
L 2247 4666
L 2881 4666
L 2075 531
L 3103 531
L 3003 0
L 313 0
L 416 531
z
" transform="scale(0.015625)"/>
      </defs>
      <use xlink:href="#DejaVuSans-Oblique-47"/>
      <use xlink:href="#DejaVuSans-Oblique-31" transform="translate(77.490234 0)"/>
     </g>
    </g>
    <g id="PathCollection_4">
     <path d="M 365.576722 358.589257
C 367.673337 358.589257 369.684362 357.756263 371.166892 356.273732
C 372.649423 354.791202 373.482416 352.780177 373.482416 350.683562
C 373.482416 348.586948 372.649423 346.575923 371.166892 345.093393
C 369.684362 343.610862 367.673337 342.777868 365.576722 342.777868
C 363.480108 342.777868 361.469083 343.610862 359.986552 345.093393
C 358.504022 346.575923 357.671028 348.586948 357.671028 350.683562
C 357.671028 352.780177 358.504022 354.791202 359.986552 356.273732
C 361.469083 357.756263 363.480108 358.589257 365.576722 358.589257
z
" style="fill: #ff7f0e; fill-opacity: 0.5"/>
    </g>
    <g id="text_14">
     <!-- G2 -->
     <g transform="translate(397.976722 355.408563) scale(0.18 -0.18)">
      <defs>
       <path id="DejaVuSans-Oblique-32" d="M 2950 2253
L 934 525
L 3163 525
L 3053 0
L 25 0
L 128 531
L 2234 2338
Q 2656 2703 2832 2979
Q 3009 3256 3009 3547
Q 3009 3850 2796 4040
Q 2584 4231 2241 4231
Q 1944 4231 1581 4125
Q 1219 4019 806 3816
L 922 4441
Q 1309 4594 1662 4672
Q 2016 4750 2316 4750
Q 2928 4750 3301 4425
Q 3675 4100 3675 3572
Q 3675 3216 3497 2892
Q 3319 2569 2950 2253
z
" transform="scale(0.015625)"/>
      </defs>
      <use xlink:href="#DejaVuSans-Oblique-47"/>
      <use xlink:href="#DejaVuSans-Oblique-32" transform="translate(77.490234 0)"/>
     </g>
    </g>
   </g>
  </g>
 </g>
 <defs>
  <clipPath id="pe68b257409">
   <rect x="136.42359" y="10.8" width="303.15282" height="364.552"/>
  </clipPath>
 </defs>
</svg>
